PathFileType	4	(X/Y/Z)	joints.trc
DataRate	CameraRate	NumFrames	NumMarkers	Units	OrigDataRate	OrigDataStartFrame	OrigNumFrames
30.0	30.0	14	17	m	30.0	76	100
Frame#	Time	smpl_pelvis			l_smpl_hip			r_smpl_hip			smpl_spine			l_smpl_knee			r_smpl_knee			l_smpl_ankle			r_smpl_ankle			l_smpl_mtp			r_smpl_mtp			smpl_head			l_smpl_shoulder			r_smpl_shoulder			l_smpl_elbow			r_smpl_elbow			l_smpl_hand			r_smpl_hand		
		X1	Y1	Z1	X2	Y2	Z2	X3	Y3	Z3	X4	Y4	Z4	X5	Y5	Z5	X6	Y6	Z6	X7	Y7	Z7	X8	Y8	Z8	X9	Y9	Z9	X10	Y10	Z10	X11	Y11	Z11	X12	Y12	Z12	X13	Y13	Z13	X14	Y14	Z14	X15	Y15	Z15	X16	Y16	Z16	X17	Y17	Z17
76	2.500000	-0.001864	-0.240126	0.027353	0.057456	-0.322952	0.008672	-0.062977	-0.331108	0.012655	0.002615	-0.115523	-0.010508	0.101718	-0.714100	0.016193	-0.107166	-0.719343	0.007058	0.086749	-1.146408	-0.021551	-0.087868	-1.144699	-0.027868	0.128698	-1.207450	0.101505	-0.123402	-1.207518	0.103838	0.001440	0.380159	0.038430	0.199753	0.239475	-0.016982	-0.192442	0.239655	-0.011175	0.459609	0.222727	-0.040020	-0.457221	0.223700	-0.042808	0.729389	0.235837	-0.047418	-0.731039	0.230996	-0.048929
77	2.533333	-0.002174	-0.240789	0.028584	0.056408	-0.323069	0.010920	-0.062483	-0.331302	0.015041	0.002266	-0.116386	-0.009801	0.099859	-0.709539	0.018957	-0.105740	-0.714990	0.010198	0.085069	-1.136413	-0.018471	-0.086685	-1.135036	-0.024363	0.126123	-1.196699	0.103571	-0.121524	-1.197142	0.105960	0.001213	0.378176	0.036816	0.199113	0.236808	-0.018070	-0.191692	0.236929	-0.012306	0.454445	0.221159	-0.041017	-0.451820	0.222559	-0.043574	0.720155	0.233857	-0.048391	-0.720928	0.229353	-0.049601
78	2.566667	-0.002595	-0.246430	0.030932	0.056646	-0.329213	0.014373	-0.063484	-0.337459	0.018687	0.001784	-0.120581	-0.009456	0.098628	-0.709102	0.022757	-0.105157	-0.715354	0.014279	0.083476	-1.131108	-0.015104	-0.085962	-1.130555	-0.020703	0.122812	-1.190925	0.107297	-0.120993	-1.191788	0.109855	0.001194	0.378331	0.034611	0.202217	0.236659	-0.018815	-0.194407	0.236380	-0.013300	0.455115	0.221658	-0.042675	-0.452688	0.223439	-0.045836	0.720420	0.234654	-0.049421	-0.720142	0.229440	-0.051413
79	2.600000	-0.002174	-0.240789	0.028584	0.056408	-0.323069	0.010920	-0.062483	-0.331302	0.015041	0.002266	-0.116386	-0.009801	0.099859	-0.709539	0.018957	-0.105740	-0.714990	0.010198	0.085069	-1.136413	-0.018471	-0.086685	-1.135036	-0.024363	0.126123	-1.196699	0.103571	-0.121524	-1.197142	0.105960	0.001213	0.378176	0.036816	0.199113	0.236808	-0.018070	-0.191692	0.236929	-0.012306	0.454445	0.221159	-0.041017	-0.451820	0.222559	-0.043574	0.720155	0.233857	-0.048391	-0.720928	0.229353	-0.049601
80	2.633333	-0.002174	-0.240789	0.028584	0.056408	-0.323069	0.010920	-0.062483	-0.331302	0.015041	0.002266	-0.116386	-0.009801	0.099859	-0.709539	0.018957	-0.105740	-0.714990	0.010198	0.085069	-1.136413	-0.018471	-0.086685	-1.135036	-0.024363	0.126123	-1.196699	0.103571	-0.121524	-1.197142	0.105960	0.001213	0.378176	0.036816	0.199113	0.236808	-0.018070	-0.191692	0.236929	-0.012306	0.454445	0.221159	-0.041017	-0.451820	0.222559	-0.043574	0.720155	0.233857	-0.048391	-0.720928	0.229353	-0.049601
81	2.666667	-0.002174	-0.240789	0.028584	0.056408	-0.323069	0.010920	-0.062483	-0.331302	0.015041	0.002266	-0.116386	-0.009801	0.099859	-0.709539	0.018957	-0.105740	-0.714990	0.010198	0.085069	-1.136413	-0.018471	-0.086685	-1.135036	-0.024363	0.126123	-1.196699	0.103571	-0.121524	-1.197142	0.105960	0.001213	0.378176	0.036816	0.199113	0.236808	-0.018070	-0.191692	0.236929	-0.012306	0.454445	0.221159	-0.041017	-0.451820	0.222559	-0.043574	0.720155	0.233857	-0.048391	-0.720928	0.229353	-0.049601
82	2.700000	-0.002174	-0.240789	0.028584	0.056408	-0.323069	0.010920	-0.062483	-0.331302	0.015041	0.002266	-0.116386	-0.009801	0.099859	-0.709539	0.018957	-0.105740	-0.714990	0.010198	0.085069	-1.136413	-0.018471	-0.086685	-1.135036	-0.024363	0.126123	-1.196699	0.103571	-0.121524	-1.197142	0.105960	0.001213	0.378176	0.036816	0.199113	0.236808	-0.018070	-0.191692	0.236929	-0.012306	0.454445	0.221159	-0.041017	-0.451820	0.222559	-0.043574	0.720155	0.233857	-0.048391	-0.720928	0.229353	-0.049601
83	2.733333	-0.002174	-0.240789	0.028584	0.056408	-0.323069	0.010920	-0.062483	-0.331302	0.015041	0.002266	-0.116386	-0.009801	0.099859	-0.709539	0.018957	-0.105740	-0.714990	0.010198	0.085069	-1.136413	-0.018471	-0.086685	-1.135036	-0.024363	0.126123	-1.196699	0.103571	-0.121524	-1.197142	0.105960	0.001213	0.378176	0.036816	0.199113	0.236808	-0.018070	-0.191692	0.236929	-0.012306	0.454445	0.221159	-0.041017	-0.451820	0.222559	-0.043574	0.720155	0.233857	-0.048391	-0.720928	0.229353	-0.049601
84	2.766667	-0.002174	-0.240789	0.028584	0.056408	-0.323069	0.010920	-0.062483	-0.331302	0.015041	0.002266	-0.116386	-0.009801	0.099859	-0.709539	0.018957	-0.105740	-0.714990	0.010198	0.085069	-1.136413	-0.018471	-0.086685	-1.135036	-0.024363	0.126123	-1.196699	0.103571	-0.121524	-1.197142	0.105960	0.001213	0.378176	0.036816	0.199113	0.236808	-0.018070	-0.191692	0.236929	-0.012306	0.454445	0.221159	-0.041017	-0.451820	0.222559	-0.043574	0.720155	0.233857	-0.048391	-0.720928	0.229353	-0.049601
85	2.800000	-0.002174	-0.240789	0.028584	0.056408	-0.323069	0.010920	-0.062483	-0.331302	0.015041	0.002266	-0.116386	-0.009801	0.099859	-0.709539	0.018957	-0.105740	-0.714990	0.010198	0.085069	-1.136413	-0.018471	-0.086685	-1.135036	-0.024363	0.126123	-1.196699	0.103571	-0.121524	-1.197142	0.105960	0.001213	0.378176	0.036816	0.199113	0.236808	-0.018070	-0.191692	0.236929	-0.012306	0.454445	0.221159	-0.041017	-0.451820	0.222559	-0.043574	0.720155	0.233857	-0.048391	-0.720928	0.229353	-0.049601
86	2.833333	-0.002174	-0.240789	0.028584	0.056408	-0.323069	0.010920	-0.062483	-0.331302	0.015041	0.002266	-0.116386	-0.009801	0.099859	-0.709539	0.018957	-0.105740	-0.714990	0.010198	0.085069	-1.136413	-0.018471	-0.086685	-1.135036	-0.024363	0.126123	-1.196699	0.103571	-0.121524	-1.197142	0.105960	0.001213	0.378176	0.036816	0.199113	0.236808	-0.018070	-0.191692	0.236929	-0.012306	0.454445	0.221159	-0.041017	-0.451820	0.222559	-0.043574	0.720155	0.233857	-0.048391	-0.720928	0.229353	-0.049601
87	2.866667	-0.002174	-0.240789	0.028584	0.056408	-0.323069	0.010920	-0.062483	-0.331302	0.015041	0.002266	-0.116386	-0.009801	0.099859	-0.709539	0.018957	-0.105740	-0.714990	0.010198	0.085069	-1.136413	-0.018471	-0.086685	-1.135036	-0.024363	0.126123	-1.196699	0.103571	-0.121524	-1.197142	0.105960	0.001213	0.378176	0.036816	0.199113	0.236808	-0.018070	-0.191692	0.236929	-0.012306	0.454445	0.221159	-0.041017	-0.451820	0.222559	-0.043574	0.720155	0.233857	-0.048391	-0.720928	0.229353	-0.049601
88	2.900000	-0.002174	-0.240789	0.028584	0.056408	-0.323069	0.010920	-0.062483	-0.331302	0.015041	0.002266	-0.116386	-0.009801	0.099859	-0.709539	0.018957	-0.105740	-0.714990	0.010198	0.085069	-1.136413	-0.018471	-0.086685	-1.135036	-0.024363	0.126123	-1.196699	0.103571	-0.121524	-1.197142	0.105960	0.001213	0.378176	0.036816	0.199113	0.236808	-0.018070	-0.191692	0.236929	-0.012306	0.454445	0.221159	-0.041017	-0.451820	0.222559	-0.043574	0.720155	0.233857	-0.048391	-0.720928	0.229353	-0.049601
89	2.933333	-0.002174	-0.240789	0.028584	0.056408	-0.323069	0.010920	-0.062483	-0.331302	0.015041	0.002266	-0.116386	-0.009801	0.099859	-0.709539	0.018957	-0.105740	-0.714990	0.010198	0.085069	-1.136413	-0.018471	-0.086685	-1.135036	-0.024363	0.126123	-1.196699	0.103571	-0.121524	-1.197142	0.105960	0.001213	0.378176	0.036816	0.199113	0.236808	-0.018070	-0.191692	0.236929	-0.012306	0.454445	0.221159	-0.041017	-0.451820	0.222559	-0.043574	0.720155	0.233857	-0.048391	-0.720928	0.229353	-0.049601
